<?xml version="1.0" standalone="no"?>
<!DOCTYPE svg PUBLIC "-//W3C//DTD SVG 20010904//EN"
 "http://www.w3.org/TR/2001/REC-SVG-20010904/DTD/svg10.dtd">
<svg version="1.0" xmlns="http://www.w3.org/2000/svg"
 width="576.000000pt" height="569.000000pt" viewBox="0 0 576.000000 569.000000"
 preserveAspectRatio="xMidYMid meet">

<g transform="translate(0.000000,569.000000) scale(0.100000,-0.100000)"
fill="#000000" stroke="none">
<path d="M2005 5193 c2 -27 7 -101 10 -167 3 -65 8 -122 11 -128 3 -5 16 -2
31 7 34 23 43 12 91 -104 23 -54 56 -131 75 -172 19 -41 74 -165 122 -277 l88
-204 -21 -21 c-17 -17 -32 -20 -82 -19 -140 4 -181 53 -335 406 -46 104 -47
110 -30 123 11 7 25 13 32 13 30 0 23 7 -116 120 -143 117 -151 123 -151 111
0 -6 34 -88 76 -183 42 -95 103 -236 136 -313 93 -214 150 -295 243 -342 47
-24 56 -25 173 -21 117 5 124 4 137 -16 22 -33 175 -392 181 -424 5 -27 2 -31
-48 -59 -72 -41 -152 -115 -192 -177 -34 -54 -86 -174 -86 -200 0 -8 -37 -52
-83 -98 -62 -62 -94 -104 -125 -165 -24 -46 -65 -108 -92 -139 -60 -68 -70
-100 -70 -221 0 -127 13 -183 54 -222 32 -31 35 -32 124 -32 112 0 152 10 228
59 73 48 110 89 198 220 38 56 75 102 82 102 19 0 34 -33 34 -77 1 -21 11 -69
24 -108 19 -56 28 -71 50 -78 51 -17 59 -5 52 76 -5 57 -3 77 8 92 22 29 20
40 -16 80 -24 28 -32 46 -32 77 l-1 41 104 33 c57 18 109 30 116 28 19 -8 175
-353 175 -387 0 -7 -18 -30 -40 -52 -51 -50 -62 -80 -44 -131 7 -21 19 -63 25
-93 15 -73 41 -132 95 -212 49 -75 62 -82 143 -81 30 0 63 -4 72 -9 9 -4 38
-59 63 -120 26 -61 65 -149 86 -195 l39 -84 45 0 c34 0 46 4 46 15 0 8 -36 98
-81 200 -61 142 -78 190 -69 200 6 7 35 25 65 40 29 15 75 45 101 67 84 70 93
72 269 80 254 11 427 31 580 67 216 51 226 58 244 176 20 138 12 305 -25 475
-40 189 -49 220 -84 295 -36 77 -51 100 -113 178 -22 28 -29 51 -36 112 -12
103 -56 191 -135 270 -87 86 -155 117 -274 123 l-93 4 -54 115 c-30 63 -59
112 -64 109 -6 -4 -4 -24 6 -52 20 -58 8 -72 -38 -49 l-33 18 18 -29 c10 -16
27 -38 36 -49 61 -70 73 -179 28 -256 -32 -54 -52 -70 -223 -177 -143 -90
-171 -110 -164 -116 4 -4 240 114 318 159 82 48 141 121 156 193 10 48 43 66
110 58 119 -14 220 -82 280 -190 34 -62 65 -165 65 -221 0 -23 14 -45 60 -93
82 -87 126 -180 144 -304 8 -53 24 -126 35 -162 28 -90 42 -211 39 -334 -3
-100 -4 -105 -31 -128 -19 -17 -40 -24 -68 -24 -34 0 -39 3 -39 23 0 28 -15
51 -27 44 -26 -16 -369 -98 -533 -127 -36 -6 -83 -15 -105 -20 -22 -5 -58 -12
-80 -15 -21 -4 -53 -14 -69 -22 -17 -9 -57 -21 -91 -28 -96 -20 -177 -64 -197
-106 -17 -37 -35 -47 -121 -68 -66 -15 -84 -14 -107 9 -26 26 -25 32 4 68 l25
29 -41 -1 c-27 -1 -44 4 -51 15 -15 24 -1 63 28 79 28 15 35 36 8 25 -50 -19
-71 -17 -87 8 -14 20 -15 29 -5 51 7 14 15 26 18 26 3 0 17 9 31 20 l25 20
-50 -3 c-48 -2 -50 -1 -53 26 -4 35 15 58 88 105 69 45 133 52 246 26 88 -20
143 -21 224 -5 30 6 98 16 150 21 81 9 111 18 203 61 60 28 128 57 150 65 53
19 182 44 225 44 30 0 32 2 26 28 -10 41 -18 45 -47 22 -35 -28 -55 -21 -121
43 -84 83 -136 218 -136 355 0 50 4 73 15 82 23 19 91 6 167 -34 52 -27 68
-32 68 -20 0 30 -88 100 -193 152 -80 40 -117 65 -150 102 -25 28 -48 50 -51
50 -10 0 -7 -52 5 -95 11 -37 10 -40 -17 -62 -16 -13 -35 -28 -42 -34 -10 -8
-7 -20 14 -58 42 -74 16 -130 -86 -185 -123 -67 -233 -71 -419 -15 -122 37
-93 -9 44 -69 101 -44 186 -57 282 -42 116 17 117 17 121 -4 3 -13 -17 -39
-62 -82 -36 -35 -66 -65 -66 -68 0 -13 117 -5 167 11 42 13 56 14 65 5 10 -10
-5 -29 -67 -87 -82 -77 -92 -82 -230 -115 -27 -7 -58 -14 -67 -17 -11 -3 -43
21 -95 71 -89 85 -170 146 -195 146 -26 0 -23 -7 34 -69 49 -54 88 -108 88
-123 0 -12 -214 3 -226 16 -19 20 -154 333 -154 357 0 17 16 36 55 66 30 24
55 50 55 59 0 55 -55 215 -103 303 -38 67 -69 86 -169 102 -77 12 -80 14 -99
51 -10 20 -19 44 -19 53 0 39 149 49 213 15 20 -11 54 -20 75 -20 75 0 100
-16 131 -85 22 -48 39 -70 76 -95 38 -26 46 -36 40 -54 -4 -11 -9 -42 -12 -68
-5 -41 -2 -50 20 -72 15 -14 36 -26 48 -26 18 0 20 4 13 23 -4 12 -8 43 -8 69
-1 66 37 114 182 228 153 120 200 165 223 215 21 46 23 81 6 111 -17 31 -147
167 -154 161 -11 -11 9 -47 57 -101 36 -41 50 -66 50 -87 0 -17 -5 -29 -13
-29 -18 0 -150 137 -169 175 -9 17 -19 45 -23 64 -9 43 -25 23 -25 -32 0 -49
18 -84 95 -176 68 -83 81 -111 66 -139 -18 -34 -39 -34 -57 1 -9 18 -45 62
-79 98 -116 124 -149 216 -121 340 19 83 19 89 7 89 -5 0 -22 -31 -37 -70 -15
-38 -31 -67 -37 -63 -15 9 -1 123 22 176 34 79 2 52 -36 -30 -32 -70 -37 -76
-46 -56 -13 29 25 151 60 193 23 28 51 122 53 179 0 25 -27 -7 -49 -59 -28
-65 -41 -71 -41 -20 0 39 -2 42 -24 36 -16 -4 -26 -1 -30 10 -5 12 -10 13 -27
4 -16 -9 -24 -8 -38 4 -10 9 -23 16 -29 16 -15 0 -15 15 -2 41 10 17 9 18 -15
7 -14 -6 -28 -8 -33 -4 -16 17 93 81 195 117 45 15 53 16 53 3 0 -7 -5 -14
-11 -14 -19 0 -159 -70 -159 -79 0 -5 36 10 80 32 93 46 173 67 284 74 100 7
203 -20 231 -61 8 -11 15 -16 16 -11 3 38 12 76 25 113 18 49 15 58 -15 42
-35 -18 -42 -3 -40 86 1 47 -1 87 -4 90 -3 3 -16 -7 -29 -22 -77 -92 -83 -97
-115 -90 -24 6 -33 14 -38 37 -8 34 -24 37 -48 9 -13 -16 -29 -20 -78 -20 -45
0 -79 -8 -135 -31 -89 -37 -148 -97 -201 -204 -28 -57 -33 -77 -28 -110 4 -29
-2 -61 -20 -114 -32 -94 -67 -157 -158 -279 -117 -158 -148 -253 -123 -379 8
-40 7 -43 -18 -54 -22 -10 -29 -10 -41 2 -22 22 -205 445 -205 473 0 20 12 33
55 60 35 23 68 55 92 92 35 53 37 62 41 148 5 113 -10 161 -142 456 -51 113
-110 245 -131 293 -21 48 -42 90 -47 93 -4 3 -8 -36 -8 -87 0 -50 -5 -132 -12
-180 -6 -49 -9 -92 -5 -95 4 -4 16 1 28 11 14 14 25 16 35 10 17 -11 145 -299
169 -379 35 -118 8 -224 -72 -280 -36 -25 -45 -27 -58 -16 -13 11 -65 111 -65
125 0 2 -11 28 -24 57 -108 234 -246 559 -246 576 0 12 10 26 23 33 12 6 24
13 26 15 7 6 -221 244 -234 244 -10 0 -12 -13 -10 -47z m1805 -480 c0 -56 3
-66 19 -70 25 -6 34 -29 21 -54 -13 -22 -30 -25 -30 -4 0 8 -9 23 -20 33 -25
23 -37 105 -21 145 17 44 31 22 31 -50z m-159 20 c25 -15 40 -43 24 -43 -18 0
-65 33 -65 45 0 19 5 19 41 -2z m-128 -25 c8 -24 -5 -38 -43 -48 -20 -6 -68
-25 -106 -42 -38 -18 -72 -34 -76 -36 -5 -2 -8 5 -8 15 0 58 215 160 233 111z
m-210 -441 c14 -85 -26 -125 -73 -75 -39 43 -40 105 -1 124 40 20 65 3 74 -49z
m-192 -240 c-17 -34 -51 -93 -76 -132 -60 -93 -75 -129 -75 -181 0 -45 -14
-64 -33 -45 -17 17 -12 118 8 166 10 22 39 69 65 105 26 36 60 85 76 110 15
25 35 53 43 64 30 36 25 -20 -8 -87z m79 -22 c-4 -22 -30 -87 -56 -145 -48
-103 -49 -107 -47 -197 2 -105 -10 -119 -47 -58 -48 77 -35 143 59 298 28 47
58 102 67 122 19 47 35 34 24 -20z m40 -185 c-21 -82 -26 -193 -10 -236 15
-38 -2 -54 -31 -28 -59 52 -67 168 -18 260 62 118 89 120 59 4z m132 -95 c-4
-35 -63 -158 -78 -163 -35 -10 -14 91 33 161 29 42 50 44 45 2z m74 -29 c3
-13 -7 -70 -22 -126 -21 -81 -25 -115 -20 -161 7 -70 -7 -77 -55 -30 -40 41
-38 78 15 203 24 56 46 111 49 121 9 24 26 21 33 -7z m72 -114 c8 -36 7 -62
-3 -111 -7 -34 -17 -67 -22 -72 -15 -15 -43 1 -49 28 -8 30 36 203 51 203 6 0
17 -21 23 -48z m90 6 c22 -22 14 -94 -14 -127 -33 -40 -59 -42 -50 -3 3 15 9
43 12 62 11 69 15 80 27 80 7 0 18 -5 25 -12z m-863 -158 c31 -61 22 -88 -70
-202 -64 -79 -101 -115 -148 -143 -34 -21 -96 -70 -137 -110 -41 -40 -85 -77
-98 -84 -27 -15 -52 -8 -52 13 0 22 111 137 170 177 55 38 59 44 30 52 -31 8
-25 46 19 113 67 101 197 214 247 214 16 0 28 -10 39 -30z m308 -110 c20 -10
27 -21 27 -40 0 -18 8 -33 25 -44 16 -11 25 -26 25 -43 0 -14 9 -41 21 -60 13
-21 19 -42 15 -57 -3 -13 1 -37 10 -54 21 -44 8 -63 -71 -101 -78 -37 -82 -37
-103 -11 -17 20 -18 20 -152 -26 -76 -26 -146 -56 -160 -69 -14 -13 -105 -71
-202 -130 -98 -58 -178 -111 -178 -116 0 -5 13 -3 30 6 35 18 40 19 40 2 0
-24 -261 -207 -295 -207 -28 0 -53 28 -61 68 -7 35 4 56 69 135 44 51 44 65 3
46 -33 -16 -50 -2 -41 34 12 46 70 101 156 146 113 60 163 94 234 161 33 31
95 82 137 113 47 34 106 91 150 146 98 120 104 123 208 118 47 -2 97 -10 113
-17z"/>
<path d="M2875 3230 c-3 -5 1 -10 9 -10 9 0 16 5 16 10 0 6 -4 10 -9 10 -6 0
-13 -4 -16 -10z"/>
<path d="M2925 3130 c-3 -5 -2 -10 4 -10 5 0 13 5 16 10 3 6 2 10 -4 10 -5 0
-13 -4 -16 -10z"/>
<path d="M2955 3020 c-8 -13 5 -13 25 0 13 8 13 10 -2 10 -9 0 -20 -4 -23 -10z"/>
<path d="M2260 2545 c-14 -16 -10 -18 14 -9 9 3 16 10 16 15 0 14 -16 11 -30
-6z"/>
<path d="M3589 4432 c-40 -36 -32 -52 27 -52 25 0 55 -7 67 -15 15 -10 35 -12
60 -8 32 5 37 9 37 32 0 24 -7 28 -73 49 -39 12 -75 22 -79 22 -4 0 -22 -13
-39 -28z m99 -20 c3 -9 -2 -13 -14 -10 -9 1 -19 9 -22 16 -3 9 2 13 14 10 9
-1 19 -9 22 -16z"/>
<path d="M3840 4368 c1 -13 10 -34 21 -48 20 -24 21 -24 35 -5 19 26 18 30
-12 54 -34 27 -44 26 -44 -1z"/>
<path d="M3801 4247 c-52 -18 -51 -37 2 -37 50 0 83 24 56 41 -17 11 -16 11
-58 -4z"/>
<path d="M3593 4127 c-27 -29 -46 -67 -35 -67 11 0 66 80 59 86 -2 2 -13 -6
-24 -19z"/>
<path d="M3775 4133 c-27 -15 -28 -17 -10 -23 11 -4 39 -10 63 -13 50 -6 57
10 13 36 -34 20 -29 20 -66 0z"/>
<path d="M3790 4030 c0 -5 7 -10 16 -10 8 0 12 5 9 10 -3 6 -10 10 -16 10 -5
0 -9 -4 -9 -10z"/>
<path d="M2008 3120 c-68 -53 -148 -278 -148 -414 1 -84 18 -187 38 -221 10
-17 11 -13 12 27 1 131 19 198 96 361 83 172 99 231 69 254 -25 18 -38 17 -67
-7z"/>
<path d="M4285 2443 c-56 -14 -22 -21 120 -28 86 -4 159 -4 163 0 4 3 -2 13
-12 21 -15 10 -50 14 -135 13 -64 -1 -125 -3 -136 -6z"/>
<path d="M2637 2322 c-10 -10 -17 -35 -17 -56 0 -32 8 -45 51 -87 56 -55 143
-109 174 -109 16 0 14 4 -10 19 -46 28 -81 74 -125 167 -23 46 -44 84 -49 84
-4 0 -15 -8 -24 -18z"/>
<path d="M2900 2275 c-27 -33 7 -209 55 -281 22 -35 35 -30 24 8 -5 18 -9 69
-9 113 -1 110 -39 197 -70 160z"/>
<path d="M5003 2230 c-23 -10 -60 -42 -89 -76 -132 -158 -165 -177 -392 -222
-73 -15 -130 -31 -126 -35 4 -4 62 -7 129 -7 90 0 141 5 201 21 144 37 285
120 344 201 63 86 23 158 -67 118z"/>
<path d="M2417 2163 c-14 -13 -6 -35 21 -60 29 -27 157 -93 181 -93 20 0 -39
62 -113 116 -57 43 -76 51 -89 37z"/>
<path d="M5304 2001 c-31 -30 -53 -41 -89 -46 -57 -9 -47 -23 22 -32 85 -10
179 50 160 101 -11 27 -50 17 -93 -23z"/>
<path d="M4970 1909 l-24 -10 28 -22 c15 -12 42 -49 59 -82 45 -84 86 -87 87
-7 0 48 -28 89 -75 112 -47 23 -42 22 -75 9z"/>
<path d="M2672 1844 c-12 -8 -22 -24 -22 -34 0 -45 151 -125 284 -149 124 -23
301 -3 383 44 27 15 24 15 -57 9 -111 -8 -186 7 -313 60 -89 38 -226 86 -246
86 -4 0 -17 -7 -29 -16z"/>
<path d="M5347 1811 c17 -11 45 -40 62 -65 49 -70 101 -87 86 -27 -16 65 -74
111 -140 111 l-40 0 32 -19z"/>
<path d="M4620 1804 c-73 -11 -148 -30 -260 -67 l-125 -41 -162 -1 c-89 0
-159 -3 -155 -7 16 -15 163 -57 241 -69 181 -26 490 6 560 58 36 28 42 86 9
106 -27 17 -72 26 -108 21z"/>
<path d="M1714 1540 c-27 -45 -71 -117 -97 -161 -27 -45 -59 -85 -73 -91 -13
-6 -24 -17 -24 -25 0 -9 18 -13 68 -13 77 0 89 6 66 31 -15 17 -13 24 37 109
29 49 58 90 64 90 10 0 19 -14 75 -119 31 -57 32 -64 17 -73 -9 -5 -17 -16
-17 -23 0 -12 18 -15 90 -15 76 0 90 3 90 16 0 9 -9 18 -20 21 -12 3 -54 65
-115 169 -53 90 -100 164 -104 164 -4 0 -29 -36 -57 -80z"/>
<path d="M537 1543 c-13 -21 -49 -79 -80 -129 -31 -51 -64 -95 -73 -98 -29
-11 -3 -26 45 -26 55 0 64 5 49 29 -9 14 -3 31 28 84 22 37 44 67 49 67 6 0
27 -32 48 -71 29 -52 36 -73 28 -83 -17 -20 -3 -26 61 -26 56 0 73 10 45 27
-7 4 -48 65 -91 136 -43 70 -80 127 -82 127 -2 0 -14 -17 -27 -37z"/>
<path d="M3246 1550 c-44 -14 -66 -39 -66 -76 0 -41 25 -60 90 -70 78 -12 99
-34 64 -68 -22 -22 -76 -20 -107 4 -35 28 -47 25 -47 -10 0 -25 5 -31 39 -41
90 -27 191 21 191 90 0 40 -34 62 -108 72 -75 10 -92 42 -35 68 30 14 61 6 86
-20 10 -11 22 -17 28 -14 12 8 12 52 -1 60 -18 11 -105 14 -134 5z"/>
<path d="M820 1521 c0 -39 19 -49 40 -22 11 15 25 22 41 19 23 -3 24 -6 27
-96 2 -76 0 -93 -13 -98 -8 -3 -15 -12 -15 -20 0 -10 15 -14 59 -14 61 0 84
12 56 28 -13 7 -15 25 -13 103 3 104 13 118 58 79 27 -24 50 -12 50 26 l0 24
-145 0 -145 0 0 -29z"/>
<path d="M1220 1540 c0 -6 7 -13 15 -16 12 -5 15 -26 15 -104 0 -56 -4 -102
-10 -105 -27 -17 11 -25 116 -25 114 0 115 0 124 26 6 14 10 30 10 35 0 15
-37 10 -44 -6 -4 -11 -21 -15 -66 -15 l-60 0 0 94 c0 74 3 95 15 100 35 13 11
26 -50 26 -38 0 -65 -4 -65 -10z"/>
<path d="M2060 1541 c0 -5 7 -11 15 -15 22 -8 22 -188 0 -206 -24 -20 -8 -30
46 -30 35 0 49 4 49 14 0 8 -7 16 -15 20 -12 4 -15 23 -15 81 l0 76 107 -95
c58 -53 114 -96 124 -96 25 0 29 20 29 136 0 63 4 104 10 104 6 0 10 5 10 10
0 6 -20 10 -45 10 -42 0 -58 -11 -35 -25 13 -8 13 -135 0 -135 -5 0 -50 36
-99 80 -84 76 -91 80 -135 80 -25 0 -46 -4 -46 -9z"/>
<path d="M2540 1521 c0 -38 13 -46 34 -22 14 16 31 19 69 12 4 0 7 -39 7 -85
0 -62 -4 -89 -15 -100 -28 -27 -17 -36 44 -36 64 0 84 12 51 30 -19 10 -21 19
-19 88 3 93 12 116 42 106 12 -4 27 -14 33 -23 10 -13 14 -13 28 -1 10 7 16
23 14 34 -3 20 -10 21 -145 24 l-143 3 0 -30z"/>
<path d="M2940 1547 c0 -2 7 -19 16 -36 22 -45 15 -179 -10 -193 -29 -16 -6
-28 55 -28 44 0 59 4 59 14 0 8 -7 16 -15 20 -12 4 -15 25 -15 101 0 76 3 97
15 101 33 13 12 24 -45 24 -33 0 -60 -2 -60 -3z"/>
<path d="M345 1250 c4 -6 207 -10 576 -10 373 0 569 3 569 10 0 7 -199 10
-576 10 -381 0 -573 -3 -569 -10z"/>
<path d="M2050 1250 c0 -7 235 -10 685 -10 450 0 685 3 685 10 0 7 -235 10
-685 10 -450 0 -685 -3 -685 -10z"/>
<path d="M434 1179 c-4 -7 1 -16 10 -21 24 -13 24 -185 -1 -203 -25 -19 -6
-35 43 -35 33 0 44 4 44 15 0 9 -7 18 -15 21 -11 5 -15 24 -15 81 0 59 3 72
14 66 7 -4 55 -46 105 -93 51 -47 100 -85 109 -85 15 0 17 15 20 115 2 89 6
116 18 123 24 13 6 27 -37 27 -28 0 -39 -4 -39 -15 0 -8 5 -15 10 -15 6 0 10
-30 10 -70 0 -47 -4 -70 -12 -70 -6 0 -51 38 -99 85 -76 75 -91 85 -122 85
-20 0 -39 -5 -43 -11z"/>
<path d="M965 1142 c-16 -26 -44 -72 -62 -102 -18 -30 -44 -67 -58 -82 -14
-14 -25 -29 -25 -32 0 -3 23 -6 50 -6 47 0 50 1 45 23 -6 23 50 127 72 134 16
6 85 -119 73 -131 -20 -20 -8 -26 50 -26 33 0 60 4 60 10 0 6 -4 10 -9 10 -5
0 -41 54 -80 119 -39 66 -74 122 -79 125 -4 2 -21 -16 -37 -42z"/>
<path d="M3130 1171 c-52 -27 -75 -65 -74 -117 2 -113 128 -169 220 -99 76 58
63 185 -23 221 -44 19 -82 17 -123 -5z m91 -11 c48 -26 64 -121 30 -177 -53
-86 -149 -24 -139 89 8 77 56 116 109 88z"/>
<path d="M1167 1173 c-4 -3 -7 -19 -7 -35 0 -30 26 -40 36 -13 4 9 19 15 40
15 l34 0 0 -89 c0 -66 -4 -92 -15 -101 -28 -23 -16 -30 50 -30 36 0 65 2 65 5
0 3 -9 14 -20 25 -18 18 -20 31 -18 103 l3 82 29 3 c19 2 32 -2 38 -12 5 -9
15 -16 23 -16 16 0 31 43 20 59 -7 12 -267 16 -278 4z"/>
<path d="M1556 1098 c-28 -46 -65 -102 -83 -125 -18 -23 -33 -44 -33 -47 0 -3
23 -6 50 -6 46 0 67 13 38 22 -14 5 60 138 77 138 17 0 77 -119 70 -140 -6
-18 -1 -20 49 -20 60 0 65 4 39 32 -9 10 -44 64 -77 120 -34 56 -66 103 -71
105 -6 2 -32 -34 -59 -79z"/>
<path d="M1787 1173 c-11 -11 -8 -51 5 -59 6 -4 16 0 23 9 7 10 26 17 44 17
l31 0 0 -94 c0 -74 -3 -95 -15 -100 -35 -13 -11 -26 50 -26 61 0 84 11 50 24
-12 4 -15 25 -15 101 l0 95 29 0 c16 0 31 -6 35 -15 3 -8 12 -15 20 -15 17 0
32 42 21 59 -7 12 -267 16 -278 4z"/>
<path d="M2181 1163 c-73 -38 -99 -126 -55 -186 26 -36 87 -59 130 -51 47 9
101 61 109 105 19 102 -91 181 -184 132z m101 -33 c28 -29 30 -35 26 -86 -3
-39 -11 -61 -28 -79 -31 -33 -55 -32 -92 5 -29 29 -30 34 -26 92 4 48 9 65 27
79 33 27 58 24 93 -11z"/>
<path d="M2900 1171 c0 -5 7 -14 15 -21 21 -17 21 -168 0 -196 -23 -31 -19
-34 45 -34 45 0 60 4 60 14 0 8 -7 16 -15 20 -12 4 -15 24 -15 94 0 67 4 93
15 102 27 22 16 30 -45 30 -33 0 -60 -4 -60 -9z"/>
<path d="M2440 1146 c0 -7 9 -16 20 -19 18 -5 20 -14 20 -81 0 -72 -1 -77 -25
-86 -49 -19 -26 -30 60 -30 66 0 85 3 85 14 0 7 -9 16 -20 19 -14 3 -20 14
-20 31 0 29 11 33 30 10 42 -50 177 -93 249 -79 l36 7 -60 17 c-71 20 -124 47
-131 65 -3 7 9 27 25 44 38 37 39 54 5 81 -24 19 -40 21 -150 21 -99 0 -124
-3 -124 -14z m208 -48 c4 -22 -31 -40 -63 -32 -18 4 -25 13 -25 31 0 22 3 24
42 21 31 -2 44 -8 46 -20z"/>
</g>
</svg>
